name GIL08_xslow2.mot
datacolumns 153
datarows 4
range 0.25833333 0.28333333
endheader

                time	           pelvis_tx	           pelvis_ty	           pelvis_tz	         pelvis_tilt	         pelvis_list	     pelvis_rotation	       hip_flexion_r	     hip_adduction_r	      hip_rotation_r	        knee_angle_r	       ankle_angle_r	    subtalar_angle_r	         mtp_angle_r	       hip_flexion_l	     hip_adduction_l	      hip_rotation_l	        knee_angle_l	       ankle_angle_l	    subtalar_angle_l	         mtp_angle_l	    lumbar_extension	      lumbar_bending	     lumbar_rotation	     ground_force_vx	     ground_force_vy	     ground_force_vz	     ground_force_px	     ground_force_py	     ground_force_pz	     ground_force_vx	     ground_force_vy	     ground_force_vz	     ground_force_px	     ground_force_py	     ground_force_pz	     ground_torque_x	     ground_torque_y	     ground_torque_z	     ground_torque_x	     ground_torque_y	     ground_torque_z	    ground_marker_px	    ground_marker_py	    ground_marker_pz	    ground_marker_px	    ground_marker_py	    ground_marker_pz	    ground_marker_px	    ground_marker_py	    ground_marker_pz	    ground_marker_px	    ground_marker_py	    ground_marker_pz	    ground_marker_px	    ground_marker_py	    ground_marker_pz	    ground_marker_px	    ground_marker_py	    ground_marker_pz	    ground_marker_px	    ground_marker_py	    ground_marker_pz	    ground_marker_px	    ground_marker_py	    ground_marker_pz	    ground_marker_px	    ground_marker_py	    ground_marker_pz	    ground_marker_px	    ground_marker_py	    ground_marker_pz	    ground_marker_px	    ground_marker_py	    ground_marker_pz	    ground_marker_px	    ground_marker_py	    ground_marker_pz	    ground_marker_px	    ground_marker_py	    ground_marker_pz	    ground_marker_px	    ground_marker_py	    ground_marker_pz	    ground_marker_px	    ground_marker_py	    ground_marker_pz	    ground_marker_px	    ground_marker_py	    ground_marker_pz	    ground_marker_px	    ground_marker_py	    ground_marker_pz	    ground_marker_px	    ground_marker_py	    ground_marker_pz	    ground_marker_px	    ground_marker_py	    ground_marker_pz	    ground_marker_px	    ground_marker_py	    ground_marker_pz	    ground_marker_px	    ground_marker_py	    ground_marker_pz	    ground_marker_px	    ground_marker_py	    ground_marker_pz	    ground_marker_px	    ground_marker_py	    ground_marker_pz	    ground_marker_px	    ground_marker_py	    ground_marker_pz	    ground_marker_px	    ground_marker_py	    ground_marker_pz	    ground_marker_px	    ground_marker_py	    ground_marker_pz	    ground_marker_px	    ground_marker_py	    ground_marker_pz	    ground_marker_px	    ground_marker_py	    ground_marker_pz	    ground_marker_px	    ground_marker_py	    ground_marker_pz	    ground_marker_px	    ground_marker_py	    ground_marker_pz	    ground_marker_px	    ground_marker_py	    ground_marker_pz	    ground_marker_px	    ground_marker_py	    ground_marker_pz	    ground_marker_px	    ground_marker_py	    ground_marker_pz	    ground_marker_px	    ground_marker_py	    ground_marker_pz	    ground_marker_px	    ground_marker_py	    ground_marker_pz	    ground_marker_px	    ground_marker_py	    ground_marker_pz	    ground_marker_px	    ground_marker_py	    ground_marker_pz	
          0.25833333	         -0.81904626	          0.98464048	          0.27458805	          3.07468319	          2.30311251	         -1.60507429	         -5.68329906	         -6.47986412	          7.29011345	        -36.88916397	        -13.80921745	          0.00000000	          0.00000000	          9.27362442	          0.74807823	          5.05824280	        -11.49603367	         -0.74576604	          0.00000000	          0.00000000	        -24.01303482	         -2.78128910	          0.62095356	          0.00000000	          0.00000000	          0.00000000	         -0.48100407	          0.00000000	          0.35165182	        -36.77088075	        579.33462336	         12.68794007	         -0.79041486	          0.00000000	          0.22129103	          0.00000000	          0.00000000	          0.00000000	          0.00000000	          0.92519104	          0.00000000	         -0.90039659	          0.90039551	          0.27194053	         -0.90186352	          0.88801831	          0.32170734	         -0.89825046	          0.89178431	          0.21526524	         -0.92220682	          0.47443676	          0.35330698	         -0.80988038	          0.48707408	          0.20936143	         -1.19032454	          0.15389952	          0.37826207	         -0.80772501	          0.06736288	          0.22902060	         -0.81904626	          0.98464048	          0.27458805	         -0.82255203	          0.98098636	          0.37786889	         -0.81554049	          0.98829460	          0.17130722	         -1.02036846	          1.01500857	          0.30862716	         -1.01862979	          1.01793897	          0.22323152	         -0.91635424	          0.47866142	          0.41236752	         -0.80258405	          0.48952791	          0.15036149	         -0.90723646	          0.47517195	          0.29413629	         -0.83046907	          0.48556522	          0.25632730	         -1.19580674	          0.16135451	          0.41511813	         -0.81088251	          0.06550448	          0.18969089	         -1.18942082	          0.16575816	          0.34656444	         -0.80447209	          0.08020939	          0.25790152	         -0.93226355	          1.47003436	          0.26036161	         -0.84054011	          1.39487529	          0.34546745	         -0.83949357	          1.39389539	          0.18964055	         -0.85221958	          1.39637041	          0.26349741	         -0.82591683	          1.19315708	          0.25820658	         -0.88292181	          0.58087111	          0.48930660	         -0.69180942	          0.63819820	          0.20614253	         -0.85502958	          0.63792419	          0.41737261	         -0.77125734	          0.68205792	          0.15841274	         -0.85566550	          0.55521291	          0.39970994	         -0.76745677	          0.59460604	          0.16506520	         -1.13856995	          0.22350356	          0.47909361	         -0.70790845	          0.18573245	          0.22739284	         -1.11166072	          0.27153218	          0.41393179	         -0.77577549	          0.23248136	          0.21410953	         -1.14293349	          0.05060437	          0.34381875	         -0.68130428	          0.04296905	          0.23787549	
          0.26666668	         -0.81431663	          0.98485017	          0.27388895	          3.05693913	          2.33275318	         -1.60760891	         -5.02713537	         -6.55687523	          7.32076645	        -37.96970367	        -12.86338139	          0.00000000	          0.00000000	          8.91506386	          0.84990942	          5.39485359	        -11.37107468	         -0.47428012	          0.00000000	          0.00000000	        -23.98876953	         -2.89782548	          0.63412642	          0.00000000	          0.00000000	          0.00000000	         -0.47781027	          0.00000000	          0.35113342	        -35.91693957	        584.27975963	         14.29037187	         -0.79005725	          0.00000000	          0.22165204	          0.00000000	          0.00000000	          0.00000000	          0.00000000	          0.79502057	          0.00000000	         -0.89592302	          0.90039694	          0.27136680	         -0.89716989	          0.88823009	          0.32094923	         -0.89354241	          0.89204866	          0.21450949	         -0.91295719	          0.47413066	          0.35307556	         -0.80789781	          0.48694527	          0.20904498	         -1.18347001	          0.15580937	          0.37949839	         -0.80784512	          0.06734715	          0.22927846	         -0.81431663	          0.98485017	          0.27388895	         -0.81783623	          0.98114520	          0.37716371	         -0.81079704	          0.98855519	          0.17061417	         -1.01564240	          1.01520908	          0.30826283	         -1.01391280	          1.01826978	          0.22285578	         -0.90714866	          0.47849074	          0.41213062	         -0.80023032	          0.48936155	          0.15009059	         -0.89883304	          0.47490624	          0.29383969	         -0.82856947	          0.48559025	          0.25562671	         -1.18829668	          0.16298267	          0.41650170	         -0.81075037	          0.06544942	          0.18993118	         -1.18275642	          0.16808014	          0.34798488	         -0.80443478	          0.08009254	          0.25814372	         -0.92728478	          1.47020316	          0.25916520	         -0.83554411	          1.39521587	          0.34430325	         -0.83462071	          1.39402819	          0.18846457	         -0.84728861	          1.39660025	          0.26233432	         -0.82096720	          1.19338322	          0.25729367	         -0.87484813	          0.58093667	          0.48897532	         -0.68891484	          0.63755870	          0.20657746	         -0.84764600	          0.63813531	          0.41690707	         -0.76779151	          0.68194067	          0.15838118	         -0.84763134	          0.55537492	          0.39924619	         -0.76443547	          0.59445643	          0.16494390	         -1.12943661	          0.22411245	          0.48005623	         -0.70728701	          0.18528500	          0.22816022	         -1.10329270	          0.27266234	          0.41501552	         -0.77489877	          0.23232222	          0.21425383	         -1.13578010	          0.05285348	          0.34497449	         -0.68118364	          0.04287047	          0.23797488	
          0.27500001	         -0.80966604	          0.98505205	          0.27325964	          3.04611588	          2.35479355	         -1.61310208	         -4.35974026	         -6.59542513	          7.37362432	        -39.02092743	        -11.51085663	          0.00000000	          0.00000000	          8.55609894	          0.93618816	          5.68548155	        -11.26026821	         -0.18612896	          0.00000000	          0.00000000	        -23.95484352	         -3.00211406	          0.65824401	          0.00000000	          0.00000000	          0.00000000	         -0.47464793	          0.00000000	          0.35061066	        -34.94375230	        590.16493286	         15.94986418	         -0.78964624	          0.00000000	          0.22212006	          0.00000000	          0.00000000	          0.00000000	          0.00000000	          0.65296283	          0.00000000	         -0.89153576	          0.90039581	          0.27085328	         -0.89254516	          0.88843071	          0.32027188	         -0.88890052	          0.89228743	          0.21383411	         -0.90362948	          0.47388500	          0.35270724	         -0.80593097	          0.48680902	          0.20875418	         -1.17628133	          0.15753719	          0.38047662	         -0.80800962	          0.06732958	          0.22953792	         -0.80966604	          0.98505205	          0.27325964	         -0.81320280	          0.98130947	          0.37654835	         -0.80612922	          0.98879462	          0.16997096	         -1.01102722	          1.01539052	          0.30792424	         -1.00930130	          1.01856387	          0.22251010	         -0.89784944	          0.47835070	          0.41175720	         -0.79794121	          0.48918197	          0.14984082	         -0.89040917	          0.47461945	          0.29356951	         -0.82669383	          0.48556134	          0.25495377	         -1.18046939	          0.16440679	          0.41761515	         -0.81064260	          0.06539225	          0.19017342	         -1.17546582	          0.16987267	          0.34904224	         -0.80440044	          0.07999644	          0.25838414	         -0.92241102	          1.47036123	          0.25805542	         -0.83058333	          1.39552224	          0.34322059	         -0.82979280	          1.39414561	          0.18732038	         -0.84239846	          1.39680278	          0.26122898	         -0.81600618	          1.19358933	          0.25641179	         -0.86669695	          0.58101326	          0.48851052	         -0.68607616	          0.63690251	          0.20693393	         -0.84017795	          0.63835400	          0.41631949	         -0.76446867	          0.68174571	          0.15830173	         -0.83954668	          0.55563003	          0.39874986	         -0.76153463	          0.59425163	          0.16478540	         -1.12008524	          0.22451401	          0.48076156	         -0.70667803	          0.18485267	          0.22899099	         -1.09470236	          0.27358559	          0.41579524	         -0.77401716	          0.23214617	          0.21441253	         -1.12738431	          0.05514259	          0.34634325	         -0.68105751	          0.04278933	          0.23808043	
          0.28333333	         -0.80509198	          0.98524410	          0.27269220	          3.03896618	          2.36756420	         -1.62542558	         -3.68188286	         -6.59632349	          7.45577860	        -40.01469040	         -9.92723083	          0.00000000	          0.00000000	          8.20016670	          1.00727868	          5.92565346	        -11.15927124	          0.10340270	          0.00000000	          0.00000000	        -23.95166016	         -3.09910417	          0.71350604	          0.00000000	          0.00000000	          0.00000000	         -0.47154532	          0.00000000	          0.35007196	        -33.84717683	        596.19711294	         17.26715923	         -0.78926550	          0.00000000	          0.22264087	          0.00000000	          0.00000000	          0.00000000	          0.00000000	          0.52130890	          0.00000000	         -0.88694155	          0.90068758	          0.27040809	         -0.88799560	          0.88862514	          0.31966588	         -0.88432419	          0.89250124	          0.21322976	         -0.89426243	          0.47373250	          0.35221273	         -0.80398053	          0.48667383	          0.20850448	         -1.16865480	          0.15901744	          0.38121322	         -0.80817926	          0.06731866	          0.22979115	         -0.80509198	          0.98524410	          0.27269220	         -0.80865586	          0.98148155	          0.37601084	         -0.80152810	          0.98900664	          0.16937357	         -1.00651610	          1.01556289	          0.30758336	         -1.00477695	          1.01882946	          0.22216924	         -0.88849008	          0.47827715	          0.41125742	         -0.79571801	          0.48899513	          0.14962670	         -0.88188410	          0.47446913	          0.29313093	         -0.82499582	          0.48560593	          0.25443131	         -1.17227626	          0.16560735	          0.41846183	         -0.81053364	          0.06534328	          0.19041088	         -1.16768658	          0.17116450	          0.34975815	         -0.80437702	          0.07993086	          0.25863388	         -0.91756785	          1.47058666	          0.25702187	         -0.82564032	          1.39582479	          0.34211224	         -0.82504463	          1.39428282	          0.18622293	         -0.83755767	          1.39701974	          0.26013926	         -0.81119543	          1.19379830	          0.25550479	         -0.85848725	          0.58112216	          0.48791933	         -0.68329459	          0.63620430	          0.20721687	         -0.83270675	          0.63864762	          0.41567576	         -0.76127464	          0.68148321	          0.15814526	         -0.83140820	          0.55597717	          0.39813754	         -0.75881892	          0.59398711	          0.16462456	         -1.11058915	          0.22479998	          0.48122689	         -0.70608670	          0.18441574	          0.22984831	         -1.08610392	          0.27438912	          0.41628951	         -0.77309895	          0.23198891	          0.21468711	         -1.11784577	          0.05734486	          0.34793186	         -0.68093181	          0.04272150	          0.23820807	
